<?xml version="1.0" encoding="UTF-8" standalone="no"?>
<svg width="1200" height="640" viewBox="0 0 1200 640" xmlns="http://www.w3.org/2000/svg">
  <defs>
    <style>
      .label {
        font-family: Arial, sans-serif;
        font-size: 24px;
        font-weight: bold;
        fill: #333333;
        text-anchor: middle;
      }
      .title {
        font-family: Arial, sans-serif;
        font-size: 14px;
        fill: #666666;
        text-anchor: middle;
      }
    </style>
    <!-- Arrow marker for quadrant A -->
    <marker id="arrowhead-a" markerWidth="9" markerHeight="9" 
            refX="6.75" refY="2.7" orient="auto">
      <polygon points="0 0, 9 2.7, 0 5.4" fill="#4169E1" opacity="0.7"/>
    </marker>
    <!-- Arrow marker for quadrant B -->
    <marker id="arrowhead-b" markerWidth="9" markerHeight="9" 
            refX="6.75" refY="2.7" orient="auto">
      <polygon points="0 0, 9 2.7, 0 5.4" fill="#4169E1" opacity="0.7"/>
    </marker>
    <!-- Arrow marker for quadrant C -->
    <marker id="arrowhead-c" markerWidth="10" markerHeight="10" 
            refX="8" refY="3" orient="auto">
      <polygon points="0 0, 10 3, 0 6" fill="#4169E1" opacity="0.7"/>
    </marker>
    <!-- Arrow marker for quadrant D -->
    <marker id="arrowhead-d" markerWidth="10" markerHeight="10" 
            refX="8" refY="3" orient="auto">
      <polygon points="0 0, 10 3, 0 6" fill="#4169E1" opacity="0.7"/>
    </marker>
    <!-- Arrow markers for quadrant E -->
    <marker id="arrowhead-e1" markerWidth="10" markerHeight="10" 
            refX="8" refY="3" orient="auto">
      <polygon points="0 0, 10 3, 0 6" fill="#4169E1" opacity="0.7"/>
    </marker>
    <marker id="arrowhead-e2" markerWidth="10" markerHeight="10" 
            refX="8" refY="3" orient="auto">
      <polygon points="0 0, 10 3, 0 6" fill="#4169E1" opacity="0.7"/>
    </marker>
    <!-- Arrow markers for quadrant F -->
    <marker id="arrowhead-f1" markerWidth="10" markerHeight="10" 
            refX="8" refY="3" orient="auto">
      <polygon points="0 0, 10 3, 0 6" fill="#4169E1" opacity="0.7"/>
    </marker>
    <marker id="arrowhead-f2" markerWidth="10" markerHeight="10" 
            refX="8" refY="3" orient="auto">
      <polygon points="0 0, 10 3, 0 6" fill="#4169E1" opacity="0.7"/>
    </marker>
  </defs>
  
  <!-- Background -->
  <rect width="1200" height="640" fill="#ffffff"/>
  
  <!-- Grid lines -->
  <line x1="600" y1="0" x2="600" y2="640" stroke="#cccccc" stroke-width="2"/>
  <line x1="0" y1="180" x2="1200" y2="180" stroke="#cccccc" stroke-width="2"/>
  <line x1="0" y1="340" x2="1200" y2="340" stroke="#cccccc" stroke-width="2"/>
  
  <!-- Quadrant A: Domino raining -->
  <g id="quadrant-a">
    <text x="20" y="20" class="label">a</text>
    <g transform="translate(105, 24) scale(1.3, 1.3)">
      <!-- Floor/base -->
      <line x1="8" y1="120" x2="292" y2="120" stroke="#8B7355" stroke-width="1.8"/>
      
      <!-- First domino (tipped) -->
      <rect x="23" y="75" width="10" height="45" fill="#2C3E50" stroke="#1A252F" stroke-width="0.9" transform="rotate(20 33 120)"/>
      
      <!-- Standing dominoes -->
      <!-- Domino 2 -->
      <rect x="72" y="75" width="10" height="45" fill="#2C3E50" stroke="#1A252F" stroke-width="0.9"/>
      
      <!-- Domino 3 -->
      <rect x="108" y="75" width="10" height="45" fill="#2C3E50" stroke="#1A252F" stroke-width="0.9"/>
      
      <!-- Sliding track -->
      <rect x="140" y="115" width="36" height="4.5" fill="#CD853F" stroke="#8B4513" stroke-width="0.9"/>
      <line x1="144" y1="117.25" x2="171" y2="117.25" stroke="#8B4513" stroke-width="0.45"/>
      
      <!-- Sliding domino (on track, in position) -->
      <rect x="152" y="75" width="10" height="45" fill="#DC143C" stroke="#8B0000" stroke-width="0.9"/>
      
      <!-- Domino 5 -->
      <rect x="189" y="75" width="10" height="45" fill="#2C3E50" stroke="#1A252F" stroke-width="0.9"/>
      
      <!-- Domino 6 -->
      <rect x="225" y="75" width="10" height="45" fill="#2C3E50" stroke="#1A252F" stroke-width="0.9"/>
      
      <!-- Bell -->
      <g transform="translate(279, 91)">
        <!-- Bell body -->
        <path d="M 0 0 Q -13.5 4.5 -13.5 18 L -13.5 22.5 Q -13.5 27 -9 29.25 L 9 29.25 Q 13.5 27 13.5 22.5 L 13.5 18 Q 13.5 4.5 0 0" 
              fill="#FFD700" stroke="#B8860B" stroke-width="1.35"/>
        <!-- Bell clapper -->
        <circle cx="0" cy="24.75" r="2.7" fill="#8B7355"/>
        <!-- Bell top -->
        <circle cx="0" cy="0" r="3.6" fill="#B8860B"/>
      </g>
      
      <!-- Motion arrow showing tipping direction -->
      <path d="M 18 57 Q 27 61.5 36 72" stroke="#4169E1" stroke-width="1.8" fill="none" 
            marker-end="url(#arrowhead-a)" opacity="0.7"/>
      
      <!-- Labels -->
      <text x="158" y="65" text-anchor="middle" font-family="Arial, sans-serif" font-size="9" fill="#8B0000">Raining</text>
    </g>
  </g>
  
  <!-- Quadrant B: Domino not raining -->
  <g id="quadrant-b">
    <text x="620" y="20" class="label">b</text>
    <g transform="translate(705, 24) scale(1.3, 1.3)">
      <!-- Floor/base -->
      <line x1="8" y1="120" x2="292" y2="120" stroke="#8B7355" stroke-width="1.8"/>
      
      <!-- First domino (tipped) -->
      <rect x="23" y="75" width="10" height="45" fill="#2C3E50" stroke="#1A252F" stroke-width="0.9" transform="rotate(20 33 120)"/>
      
      <!-- Standing dominoes (first group) -->
      <!-- Domino 2 -->
      <rect x="72" y="75" width="10" height="45" fill="#2C3E50" stroke="#1A252F" stroke-width="0.9"/>
      
      <!-- Sliding track (empty) -->
      <rect x="104" y="115" width="36" height="4.5" fill="#CD853F" stroke="#8B4513" stroke-width="0.9"/>
      <line x1="108" y1="117.25" x2="135" y2="117.25" stroke="#8B4513" stroke-width="0.45"/>
      
      <!-- Sliding domino (moved to the side, above track) -->
      <rect x="116" y="30" width="10" height="45" fill="#DC143C" stroke="#8B0000" stroke-width="0.9"/>
      
      <!-- Standing dominoes (second group) -->
      <!-- Domino 3 -->
      <rect x="171" y="75" width="10" height="45" fill="#2C3E50" stroke="#1A252F" stroke-width="0.9"/>
      
      <!-- Domino 4 -->
      <rect x="207" y="75" width="10" height="45" fill="#2C3E50" stroke="#1A252F" stroke-width="0.9"/>
      
      <!-- Bell -->
      <g transform="translate(261, 91)">
        <!-- Bell body -->
        <path d="M 0 0 Q -13.5 4.5 -13.5 18 L -13.5 22.5 Q -13.5 27 -9 29.25 L 9 29.25 Q 13.5 27 13.5 22.5 L 13.5 18 Q 13.5 4.5 0 0" 
              fill="#A0A0A0" stroke="#808080" stroke-width="1.35"/>
        <!-- Bell clapper -->
        <circle cx="0" cy="24.75" r="2.7" fill="#8B7355"/>
        <!-- Bell top -->
        <circle cx="0" cy="0" r="3.6" fill="#808080"/>
      </g>
      
      <!-- Motion arrow showing tipping direction -->
      <path d="M 18 57 Q 27 61.5 36 72" stroke="#4169E1" stroke-width="1.8" fill="none" 
            marker-end="url(#arrowhead-b)" opacity="0.7"/>
      
      <!-- Labels -->
      <text x="122" y="20" text-anchor="middle" font-family="Arial, sans-serif" font-size="9" fill="#8B0000">Not raining</text>
    </g>
  </g>
  
  <!-- Quadrant C: Domino raining and outside -->
  <g id="quadrant-c">
    <text x="20" y="200" class="label">c</text>
    <g transform="translate(50, 208) scale(1.1, 1.1)">
      <!-- Floor/base -->
      <line x1="10" y1="120" x2="490" y2="120" stroke="#8B7355" stroke-width="2"/>
      
      <!-- First domino (tipped) -->
      <rect x="30" y="70" width="12" height="50" fill="#2C3E50" stroke="#1A252F" stroke-width="1" transform="rotate(20 42 120)"/>
      
      <!-- First group of dominoes -->
      <!-- Domino 2 -->
      <rect x="80" y="70" width="12" height="50" fill="#2C3E50" stroke="#1A252F" stroke-width="1"/>
      
      <!-- Domino 3 -->
      <rect x="120" y="70" width="12" height="50" fill="#2C3E50" stroke="#1A252F" stroke-width="1"/>
      
      <!-- First sliding track -->
      <rect x="155" y="115" width="40" height="5" fill="#CD853F" stroke="#8B4513" stroke-width="1"/>
      <line x1="160" y1="117.5" x2="190" y2="117.5" stroke="#8B4513" stroke-width="0.5"/>
      
      <!-- First sliding domino (in position) -->
      <rect x="169" y="70" width="12" height="50" fill="#DC143C" stroke="#8B0000" stroke-width="1"/>
      
      <!-- Domino 5 -->
      <rect x="210" y="70" width="12" height="50" fill="#2C3E50" stroke="#1A252F" stroke-width="1"/>
      
      <!-- Domino 6 -->
      <rect x="250" y="70" width="12" height="50" fill="#2C3E50" stroke="#1A252F" stroke-width="1"/>
      
      <!-- Second sliding track -->
      <rect x="295" y="115" width="40" height="5" fill="#CD853F" stroke="#8B4513" stroke-width="1"/>
      <line x1="300" y1="117.5" x2="330" y2="117.5" stroke="#8B4513" stroke-width="0.5"/>
      
      <!-- Second sliding domino (in position) -->
      <rect x="309" y="70" width="12" height="50" fill="#DC143C" stroke="#8B0000" stroke-width="1"/>
      
      <!-- Domino 8 -->
      <rect x="350" y="70" width="12" height="50" fill="#2C3E50" stroke="#1A252F" stroke-width="1"/>
      
      <!-- Domino 9 -->
      <rect x="390" y="70" width="12" height="50" fill="#2C3E50" stroke="#1A252F" stroke-width="1"/>
      
      <!-- Bell -->
      <g transform="translate(450, 88)">
        <!-- Bell body -->
        <path d="M 0 0 Q -15 5 -15 20 L -15 25 Q -15 30 -10 32 L 10 32 Q 15 30 15 25 L 15 20 Q 15 5 0 0" 
              fill="#FFD700" stroke="#B8860B" stroke-width="1.5"/>
        <!-- Bell clapper -->
        <circle cx="0" cy="28" r="3" fill="#8B7355"/>
        <!-- Bell top -->
        <circle cx="0" cy="0" r="4" fill="#B8860B"/>
      </g>
      
      <!-- Motion arrow showing tipping direction -->
      <path d="M 25 50 Q 35 55 45 65" stroke="#4169E1" stroke-width="2" fill="none" 
            marker-end="url(#arrowhead-c)" opacity="0.7"/>
      
      <!-- Labels -->
      <text x="175" y="60" text-anchor="middle" font-family="Arial, sans-serif" font-size="10" fill="#8B0000">Raining</text>
      <text x="315" y="60" text-anchor="middle" font-family="Arial, sans-serif" font-size="10" fill="#8B0000">Going outside</text>
    </g>
  </g>
  
  <!-- Quadrant D: Domino not raining and not outside -->
  <g id="quadrant-d">
    <text x="620" y="200" class="label">d</text>
    <g transform="translate(650, 208) scale(1.1, 1.1)">
      <!-- Floor/base -->
      <line x1="10" y1="120" x2="520" y2="120" stroke="#8B7355" stroke-width="2"/>
      
      <!-- First domino (tipped) -->
      <rect x="30" y="70" width="12" height="50" fill="#2C3E50" stroke="#1A252F" stroke-width="1" transform="rotate(20 42 120)"/>
      
      <!-- First group of dominoes -->
      <!-- Domino 2 -->
      <rect x="80" y="70" width="12" height="50" fill="#2C3E50" stroke="#1A252F" stroke-width="1"/>
      
      <!-- First sliding track (empty) -->
      <rect x="115" y="115" width="40" height="5" fill="#CD853F" stroke="#8B4513" stroke-width="1"/>
      <line x1="120" y1="117.5" x2="150" y2="117.5" stroke="#8B4513" stroke-width="0.5"/>
      
      <!-- First sliding domino (out of position) -->
      <rect x="129" y="20" width="12" height="50" fill="#DC143C" stroke="#8B0000" stroke-width="1"/>
      
      <!-- Second group of dominoes -->
      <!-- Domino 3 -->
      <rect x="190" y="70" width="12" height="50" fill="#2C3E50" stroke="#1A252F" stroke-width="1"/>
      
      <!-- Domino 4 -->
      <rect x="230" y="70" width="12" height="50" fill="#2C3E50" stroke="#1A252F" stroke-width="1"/>
      
      <!-- Domino 5 -->
      <rect x="270" y="70" width="12" height="50" fill="#2C3E50" stroke="#1A252F" stroke-width="1"/>
      
      <!-- Second sliding track (empty) -->
      <rect x="315" y="115" width="40" height="5" fill="#CD853F" stroke="#8B4513" stroke-width="1"/>
      <line x1="320" y1="117.5" x2="350" y2="117.5" stroke="#8B4513" stroke-width="0.5"/>
      
      <!-- Second sliding domino (out of position) -->
      <rect x="329" y="20" width="12" height="50" fill="#DC143C" stroke="#8B0000" stroke-width="1"/>
      
      <!-- Third group of dominoes -->
      <!-- Domino 6 -->
      <rect x="390" y="70" width="12" height="50" fill="#2C3E50" stroke="#1A252F" stroke-width="1"/>
      
      <!-- Domino 7 -->
      <rect x="430" y="70" width="12" height="50" fill="#2C3E50" stroke="#1A252F" stroke-width="1"/>
      
      <!-- Bell -->
      <g transform="translate(480, 88)">
        <!-- Bell body -->
        <path d="M 0 0 Q -15 5 -15 20 L -15 25 Q -15 30 -10 32 L 10 32 Q 15 30 15 25 L 15 20 Q 15 5 0 0" 
              fill="#A0A0A0" stroke="#808080" stroke-width="1.5"/>
        <!-- Bell clapper -->
        <circle cx="0" cy="28" r="3" fill="#8B7355"/>
        <!-- Bell top -->
        <circle cx="0" cy="0" r="4" fill="#808080"/>
      </g>
      
      <!-- Motion arrow showing tipping direction -->
      <path d="M 25 50 Q 35 55 45 65" stroke="#4169E1" stroke-width="2" fill="none" 
            marker-end="url(#arrowhead-d)" opacity="0.7"/>
      
      <!-- Labels -->
      <text x="135" y="10" text-anchor="middle" font-family="Arial, sans-serif" font-size="10" fill="#8B0000">Not raining</text>
      <text x="335" y="10" text-anchor="middle" font-family="Arial, sans-serif" font-size="10" fill="#8B0000">Not going outside</text>
    </g>
  </g>
  
  <!-- Quadrant E: Domino raining and outside inverted -->
  <g id="quadrant-e">
    <text x="20" y="360" class="label">e</text>
    <g transform="translate(50, 370) scale(1.0, 1.0)">
      <!-- Floor/base for horizontal line -->
      <line x1="10" y1="150" x2="490" y2="150" stroke="#8B7355" stroke-width="2"/>
      
      <!-- Floor/base for vertical line -->
      <line x1="480" y1="90" x2="480" y2="230" stroke="#8B7355" stroke-width="2"/>
      
      <!-- HORIZONTAL LINE OF DOMINOES -->
      
      <!-- First domino (tipped) -->
      <rect x="30" y="100" width="12" height="50" fill="#2C3E50" stroke="#1A252F" stroke-width="1" transform="rotate(20 42 150)"/>
      
      <!-- First group of dominoes -->
      <!-- Domino 2 -->
      <rect x="80" y="100" width="12" height="50" fill="#2C3E50" stroke="#1A252F" stroke-width="1"/>
      
      <!-- Domino 3 -->
      <rect x="120" y="100" width="12" height="50" fill="#2C3E50" stroke="#1A252F" stroke-width="1"/>
      
      <!-- First sliding track -->
      <rect x="155" y="145" width="40" height="5" fill="#CD853F" stroke="#8B4513" stroke-width="1"/>
      <line x1="160" y1="147.5" x2="190" y2="147.5" stroke="#8B4513" stroke-width="0.5"/>
      
      <!-- First sliding domino (in position - raining) -->
      <rect x="169" y="100" width="12" height="50" fill="#DC143C" stroke="#8B0000" stroke-width="1"/>
      
      <!-- Domino 5 -->
      <rect x="210" y="100" width="12" height="50" fill="#2C3E50" stroke="#1A252F" stroke-width="1"/>
      
      <!-- Domino 6 -->
      <rect x="250" y="100" width="12" height="50" fill="#2C3E50" stroke="#1A252F" stroke-width="1"/>
      
      <!-- Second sliding track -->
      <rect x="295" y="145" width="40" height="5" fill="#CD853F" stroke="#8B4513" stroke-width="1"/>
      <line x1="300" y1="147.5" x2="330" y2="147.5" stroke="#8B4513" stroke-width="0.5"/>
      
      <!-- Second sliding domino (in position - going outside) -->
      <rect x="309" y="100" width="12" height="50" fill="#DC143C" stroke="#8B0000" stroke-width="1"/>
      
      <!-- Domino 8 -->
      <rect x="350" y="100" width="12" height="50" fill="#2C3E50" stroke="#1A252F" stroke-width="1"/>
      
      <!-- Domino 9 -->
      <rect x="390" y="100" width="12" height="50" fill="#2C3E50" stroke="#1A252F" stroke-width="1"/>
      
      <!-- PERPENDICULAR LINE OF DOMINOES -->
      
      <!-- Perpendicular domino 1 (tipped) -->
      <rect x="474" y="40" width="12" height="50" fill="#2C3E50" stroke="#1A252F" stroke-width="1" transform="rotate(20 480 90)"/>
      
      <!-- Perpendicular domino 2 (blocked by fallen horizontal domino) -->
      <rect x="474" y="100" width="12" height="50" fill="#2C3E50" stroke="#1A252F" stroke-width="1"/>
      
      <!-- Perpendicular domino 3 -->
      <rect x="474" y="160" width="12" height="50" fill="#2C3E50" stroke="#1A252F" stroke-width="1"/>
      
      <!-- Bell (at bottom, won't ring) -->
      <g transform="translate(480, 218)">
        <!-- Bell body -->
        <path d="M 0 0 Q -15 5 -15 20 L -15 25 Q -15 30 -10 32 L 10 32 Q 15 30 15 25 L 15 20 Q 15 5 0 0" 
              fill="#A0A0A0" stroke="#808080" stroke-width="1.5"/>
        <!-- Bell clapper -->
        <circle cx="0" cy="28" r="3" fill="#8B7355"/>
        <!-- Bell top -->
        <circle cx="0" cy="0" r="4" fill="#808080"/>
      </g>
      
      <!-- Last domino (fallen, blocking perpendicular line) - in foreground -->
      <rect x="430" y="100" width="12" height="50" fill="#2C3E50" stroke="#1A252F" stroke-width="1" transform="rotate(70 442 150)"/>
      
      <!-- Motion arrows -->
      <!-- Arrow for horizontal line -->
      <path d="M 25 80 Q 35 85 45 95" stroke="#4169E1" stroke-width="2" fill="none" 
            marker-end="url(#arrowhead-e1)" opacity="0.7"/>
      
      <!-- Arrow for perpendicular line -->
      <path d="M 464 25 Q 474 30 484 40" stroke="#4169E1" stroke-width="2" fill="none" 
            marker-end="url(#arrowhead-e2)" opacity="0.7"/>
      
      <!-- Labels -->
      <text x="175" y="90" text-anchor="middle" font-family="Arial, sans-serif" font-size="10" fill="#8B0000">Raining</text>
      <text x="315" y="90" text-anchor="middle" font-family="Arial, sans-serif" font-size="10" fill="#8B0000">Going outside</text>
      <text x="440" y="125" text-anchor="middle" font-family="Arial, sans-serif" font-size="10" fill="#555">Blocking</text>
    </g>
  </g>
  
  <!-- Quadrant F: Domino not raining and not outside inverted -->
  <g id="quadrant-f">
    <text x="620" y="360" class="label">f</text>
    <g transform="translate(650, 370) scale(1.0, 1.0)">
      <!-- Floor/base for horizontal line -->
      <line x1="10" y1="150" x2="490" y2="150" stroke="#8B7355" stroke-width="2"/>
      
      <!-- Floor/base for vertical line -->
      <line x1="480" y1="90" x2="480" y2="230" stroke="#8B7355" stroke-width="2"/>
      
      <!-- HORIZONTAL LINE OF DOMINOES -->
      
      <!-- First domino (tipped) -->
      <rect x="30" y="100" width="12" height="50" fill="#2C3E50" stroke="#1A252F" stroke-width="1" transform="rotate(20 42 150)"/>
      
      <!-- Domino 2 -->
      <rect x="80" y="100" width="12" height="50" fill="#2C3E50" stroke="#1A252F" stroke-width="1"/>
      
      <!-- First sliding track (empty) -->
      <rect x="115" y="145" width="40" height="5" fill="#CD853F" stroke="#8B4513" stroke-width="1"/>
      <line x1="120" y1="147.5" x2="150" y2="147.5" stroke="#8B4513" stroke-width="0.5"/>
      
      <!-- First sliding domino (positioned above, out of track) -->
      <rect x="129" y="50" width="12" height="50" fill="#DC143C" stroke="#8B0000" stroke-width="1"/>
      
      <!-- Domino 3 -->
      <rect x="170" y="100" width="12" height="50" fill="#2C3E50" stroke="#1A252F" stroke-width="1"/>
      
      <!-- Domino 4 -->
      <rect x="210" y="100" width="12" height="50" fill="#2C3E50" stroke="#1A252F" stroke-width="1"/>
      
      <!-- Domino 5 -->
      <rect x="250" y="100" width="12" height="50" fill="#2C3E50" stroke="#1A252F" stroke-width="1"/>
      
      <!-- Second sliding track (empty) -->
      <rect x="295" y="145" width="40" height="5" fill="#CD853F" stroke="#8B4513" stroke-width="1"/>
      <line x1="300" y1="147.5" x2="330" y2="147.5" stroke="#8B4513" stroke-width="0.5"/>
      
      <!-- Second sliding domino (positioned above, out of track) -->
      <rect x="309" y="50" width="12" height="50" fill="#DC143C" stroke="#8B0000" stroke-width="1"/>
      
      <!-- Domino 6 -->
      <rect x="350" y="100" width="12" height="50" fill="#2C3E50" stroke="#1A252F" stroke-width="1"/>
      
      <!-- Domino 7 -->
      <rect x="390" y="100" width="12" height="50" fill="#2C3E50" stroke="#1A252F" stroke-width="1"/>
      
      <!-- Last domino (standing) -->
      <rect x="430" y="100" width="12" height="50" fill="#2C3E50" stroke="#1A252F" stroke-width="1"/>
      
      <!-- PERPENDICULAR LINE OF DOMINOES -->
      
      <!-- Perpendicular domino 1 (tipped from top) -->
      <rect x="474" y="40" width="12" height="50" fill="#2C3E50" stroke="#1A252F" stroke-width="1" transform="rotate(20 480 90)"/>
      
      <!-- Perpendicular domino 2 -->
      <rect x="474" y="100" width="12" height="50" fill="#2C3E50" stroke="#1A252F" stroke-width="1"/>
      
      <!-- Perpendicular domino 3 -->
      <rect x="474" y="160" width="12" height="50" fill="#2C3E50" stroke="#1A252F" stroke-width="1"/>
      
      <!-- Bell (at bottom) -->
      <g transform="translate(480, 218)">
        <!-- Bell body -->
        <path d="M 0 0 Q -15 5 -15 20 L -15 25 Q -15 30 -10 32 L 10 32 Q 15 30 15 25 L 15 20 Q 15 5 0 0" 
              fill="#FFD700" stroke="#B8860B" stroke-width="1.5"/>
        <!-- Bell clapper -->
        <circle cx="0" cy="28" r="3" fill="#8B7355"/>
        <!-- Bell top -->
        <circle cx="0" cy="0" r="4" fill="#B8860B"/>
      </g>
      
      <!-- Motion arrows -->
      <!-- Arrow for horizontal line -->
      <path d="M 25 80 Q 35 85 45 95" stroke="#4169E1" stroke-width="2" fill="none" 
            marker-end="url(#arrowhead-f1)" opacity="0.7"/>
      
      <!-- Arrow for perpendicular line -->
      <path d="M 464 25 Q 474 30 484 40" stroke="#4169E1" stroke-width="2" fill="none" 
            marker-end="url(#arrowhead-f2)" opacity="0.7"/>
      
      <!-- Labels -->
      <text x="135" y="40" text-anchor="middle" font-family="Arial, sans-serif" font-size="10" fill="#8B0000">Not raining</text>
      <text x="315" y="40" text-anchor="middle" font-family="Arial, sans-serif" font-size="10" fill="#8B0000">Not going outside</text>
    </g>
  </g>
</svg>