<svg viewBox="0 0 550 330" xmlns="http://www.w3.org/2000/svg">
  <!-- Floor/base for horizontal line -->
  <line x1="10" y1="150" x2="490" y2="150" stroke="#8B7355" stroke-width="2"/>
  
  <!-- Floor/base for vertical line -->
  <line x1="480" y1="80" x2="480" y2="310" stroke="#8B7355" stroke-width="2"/>
  
  <!-- HORIZONTAL LINE OF DOMINOES -->
  
  <!-- First domino (tipped) -->
  <rect x="30" y="100" width="12" height="50" fill="#2C3E50" stroke="#1A252F" stroke-width="1" transform="rotate(20 42 150)"/>
  
  <!-- First group of dominoes -->
  <!-- Domino 2 -->
  <rect x="80" y="100" width="12" height="50" fill="#2C3E50" stroke="#1A252F" stroke-width="1"/>
  
  <!-- Domino 3 -->
  <rect x="120" y="100" width="12" height="50" fill="#2C3E50" stroke="#1A252F" stroke-width="1"/>
  
  <!-- First sliding track -->
  <rect x="155" y="145" width="40" height="5" fill="#CD853F" stroke="#8B4513" stroke-width="1"/>
  <line x1="160" y1="147.5" x2="190" y2="147.5" stroke="#8B4513" stroke-width="0.5"/>
  
  <!-- First sliding domino (in position - raining) -->
  <rect x="169" y="100" width="12" height="50" fill="#DC143C" stroke="#8B0000" stroke-width="1"/>
  
  <!-- Domino 5 -->
  <rect x="210" y="100" width="12" height="50" fill="#2C3E50" stroke="#1A252F" stroke-width="1"/>
  
  <!-- Domino 6 -->
  <rect x="250" y="100" width="12" height="50" fill="#2C3E50" stroke="#1A252F" stroke-width="1"/>
  
  <!-- Second sliding track -->
  <rect x="295" y="145" width="40" height="5" fill="#CD853F" stroke="#8B4513" stroke-width="1"/>
  <line x1="300" y1="147.5" x2="330" y2="147.5" stroke="#8B4513" stroke-width="0.5"/>
  
  <!-- Second sliding domino (in position - going outside) -->
  <rect x="309" y="100" width="12" height="50" fill="#DC143C" stroke="#8B0000" stroke-width="1"/>
  
  <!-- Domino 8 -->
  <rect x="350" y="100" width="12" height="50" fill="#2C3E50" stroke="#1A252F" stroke-width="1"/>
  
  <!-- Domino 9 -->
  <rect x="390" y="100" width="12" height="50" fill="#2C3E50" stroke="#1A252F" stroke-width="1"/>
  
  <!-- PERPENDICULAR LINE OF DOMINOES -->
  
  <!-- Perpendicular domino 1 (tipped) -->
  <rect x="474" y="30" width="12" height="50" fill="#2C3E50" stroke="#1A252F" stroke-width="1" transform="rotate(20 480 80)"/>
  
  <!-- Perpendicular domino 2 (blocked by fallen horizontal domino) -->
  <rect x="474" y="90" width="12" height="50" fill="#2C3E50" stroke="#1A252F" stroke-width="1"/>
  
  <!-- Perpendicular domino 3 -->
  <rect x="474" y="150" width="12" height="50" fill="#2C3E50" stroke="#1A252F" stroke-width="1"/>
  
  <!-- Perpendicular domino 4 -->
  <rect x="474" y="210" width="12" height="50" fill="#2C3E50" stroke="#1A252F" stroke-width="1"/>
  
  <!-- Bell (at bottom, won't ring) -->
  <g transform="translate(480, 278)">
    <!-- Bell body -->
    <path d="M 0 0 Q -15 5 -15 20 L -15 25 Q -15 30 -10 32 L 10 32 Q 15 30 15 25 L 15 20 Q 15 5 0 0" 
          fill="#FFD700" stroke="#B8860B" stroke-width="1.5"/>
    <!-- Bell clapper -->
    <circle cx="0" cy="28" r="3" fill="#8B7355"/>
    <!-- Bell top -->
    <circle cx="0" cy="0" r="4" fill="#B8860B"/>
  </g>
  
  <!-- Last domino (fallen, blocking perpendicular line) - in foreground -->
  <rect x="430" y="100" width="12" height="50" fill="#2C3E50" stroke="#1A252F" stroke-width="1" transform="rotate(70 442 150)"/>
  
  <!-- Motion arrows -->
  <!-- Arrow for horizontal line -->
  <path d="M 25 80 Q 35 85 45 95" stroke="#4169E1" stroke-width="2" fill="none" 
        marker-end="url(#arrowhead)" opacity="0.7"/>
  
  <!-- Arrow for perpendicular line (moved lower) -->
  <path d="M 460 35 Q 470 40 480 50" stroke="#4169E1" stroke-width="2" fill="none" 
        marker-end="url(#arrowhead2)" opacity="0.7"/>
  
  <!-- Arrow markers -->
  <defs>
    <marker id="arrowhead" markerWidth="10" markerHeight="10" 
            refX="8" refY="3" orient="auto">
      <polygon points="0 0, 10 3, 0 6" fill="#4169E1" opacity="0.7"/>
    </marker>
    <marker id="arrowhead2" markerWidth="10" markerHeight="10" 
            refX="8" refY="3" orient="auto">
      <polygon points="0 0, 10 3, 0 6" fill="#4169E1" opacity="0.7"/>
    </marker>
  </defs>
  
  <!-- Labels -->
  <text x="175" y="92" text-anchor="middle" font-family="Arial, sans-serif" font-size="9" fill="#8B0000">Raining</text>
  <text x="175" y="165" text-anchor="middle" font-family="Arial, sans-serif" font-size="9" fill="#555">Sliding track</text>
  <text x="315" y="92" text-anchor="middle" font-family="Arial, sans-serif" font-size="9" fill="#8B0000">Going outside</text>
  <text x="315" y="165" text-anchor="middle" font-family="Arial, sans-serif" font-size="9" fill="#555">Sliding track</text>
  <text x="450" y="120" text-anchor="middle" font-family="Arial, sans-serif" font-size="9" fill="#555">Blocking</text>
  <text x="480" y="320" text-anchor="middle" font-family="Arial, sans-serif" font-size="9" fill="#B8860B">Bell (blocked)</text>
</svg>